<svg xmlns="http://www.w3.org/2000/svg" width="200" height="200" viewBox="0 0 200 200">
  <g fill="none" fill-rule="evenodd">
    <circle cx="100" cy="100" r="100" fill="#BBDEFB"/>
    <circle cx="100" cy="100" r="100" fill="#E3F2FD"/>
    <path fill="#90CAF9" d="M120.534901,102.122163 C133.698267,102.186453 146.510153,100.30674 158.511286,100 C173.310814,99.6217347 186.608556,103.69432 200,100 C200,155.22945 155.227873,200 100,200 C45.3238098,200 0.896476195,156.119428 0.0133971429,101.653683 L0,100 C14.3087868,96.0526106 29.874577,104.215514 45.7909694,104.054054 C58.7065824,103.923035 73.1764347,99.019386 87.0254558,98.5595754 C99.0825574,98.1592594 113.762128,102.089085 120.534901,102.122163 Z"/>
    <path fill="#795548" d="M189.158381,102.379281 L189.153363,102.514174 L189.160647,105.105514 C189.157781,111.090037 188.846895,118.209206 184.622572,128.388611 C172.732243,164.234767 138.935088,190.09009 99.0990991,190.09009 C57.0006575,190.09009 21.6464703,161.214504 11.7620403,122.188836 C4.89310226,98.4574045 10.7454244,73.6225815 29.3193664,47.6835905 C24.0350731,62.9307493 21.3929265,76.7591168 21.3929265,89.1686932 C21.3929265,107.783058 40.6049618,135.856374 56.10641,135.856374 C71.6078583,135.856374 53.6291408,116.932998 59.9986806,116.9295 C76.5186174,116.9295 71.7285386,141.189643 104.508485,141.189643 C131.905971,141.189643 147.426047,118.361176 142.971213,92.5020403 C142.740874,91.164981 139.67241,88.8273442 137.236572,92.5020403 L134.766957,96.2604579 C131.159708,101.68378 126.987333,107.233078 124.020999,104.491134 C118.968868,97.5286829 123.321547,88.0586198 128.888223,82.7439105 C133.195789,78.6313203 138.748391,77.9144087 137.971403,77.0605236 C122.877085,45.6106347 71.7285386,72.2966612 71.7285386,47.6835905 C71.7285386,23.0705199 116.00494,18.018018 119.964844,18.018018 C123.924749,18.018018 121.847987,22.7608885 126.890036,25.4255552 C185.790172,49.4149942 188.988551,88.6538616 189.145495,100.904187 L189.184768,100.90196 L189.158381,102.379281 Z"/>
    <path fill="#EFEBE9" d="M92.1522964,56.4678432 C82.1363005,56.647061 73.8590435,52.1763907 76.2742482,47.6288197 C78.6894529,43.0812487 131.436193,42.2679256 125.234605,60.9763121 C109.55728,55.3130286 99.0642393,56.4678432 92.1522964,56.4678432 Z"/>
  </g>
</svg>
