<svg xmlns="http://www.w3.org/2000/svg" width="329" height="70" viewBox="0 0 329 70">
  <path fill="#795548" d="M145.21875 15.2539063C145.21875 18.0533994 144.723963 20.507802 143.734375 22.6171875 142.744787 24.726573 141.328785 26.3541609 139.486328 27.5 137.643871 28.6458391 135.531262 29.21875 133.148438 29.21875 130.791655 29.21875 128.688811 28.6523494 126.839844 27.5195312 124.990876 26.3867131 123.558599 24.7688907 122.542969 22.6660156 121.527339 20.5631405 121.013021 18.1445449 121 15.4101563L121 14.0039062C121 11.2044131 121.504552 8.74024502 122.513672 6.61132812 123.522792 4.48241123 124.948558 2.84831299 126.791016 1.70898438 128.633473.569655762 130.739571 0 133.109375 0 135.479179 0 137.585277.569655762 139.427734 1.70898438 141.270192 2.84831299 142.695958 4.48241123 143.705078 6.61132812 144.714198 8.74024502 145.21875 11.1979027 145.21875 13.984375L145.21875 15.2539063zM139.28125 13.9648438C139.28125 10.983058 138.747401 8.71745566 137.679688 7.16796875 136.611974 5.61848184 135.088552 4.84375 133.109375 4.84375 131.143219 4.84375 129.626307 5.60871631 128.558594 7.13867188 127.49088 8.66862744 126.950521 10.9114436 126.9375 13.8671875L126.9375 15.2539062C126.9375 18.1575666 127.471349 20.4101482 128.539062 22.0117188 129.606776 23.6132893 131.143219 24.4140625 133.148438 24.4140625 135.114593 24.4140625 136.624995 23.6425858 137.679688 22.0996094 138.73438 20.5566329 139.268229 18.3073064 139.28125 15.3515625L139.28125 13.9648438zM155.863281 2.5L155.863281 7.6953125 159.476562 7.6953125 159.476562 11.8359375 155.863281 11.8359375 155.863281 22.3828125C155.863281 23.1640664 156.013019 23.7239566 156.3125 24.0625 156.611981 24.4010434 157.184892 24.5703125 158.03125 24.5703125 158.656253 24.5703125 159.209633 24.52474 159.691406 24.4335938L159.691406 28.7109375C158.58463 29.0494809 157.445318 29.21875 156.273438 29.21875 152.315084 29.21875 150.296875 27.2200721 150.21875 23.2226562L150.21875 11.8359375 147.132812 11.8359375 147.132812 7.6953125 150.21875 7.6953125 150.21875 2.5 155.863281 2.5zM169.378906 2.5L169.378906 7.6953125 172.992188 7.6953125 172.992188 11.8359375 169.378906 11.8359375 169.378906 22.3828125C169.378906 23.1640664 169.528644 23.7239566 169.828125 24.0625 170.127606 24.4010434 170.700517 24.5703125 171.546875 24.5703125 172.171878 24.5703125 172.725258 24.52474 173.207031 24.4335938L173.207031 28.7109375C172.100255 29.0494809 170.960943 29.21875 169.789062 29.21875 165.830709 29.21875 163.8125 27.2200721 163.734375 23.2226562L163.734375 11.8359375 160.648438 11.8359375 160.648438 7.6953125 163.734375 7.6953125 163.734375 2.5 169.378906 2.5zM185.863281 29.21875C182.764307 29.21875 180.241546 28.2682387 178.294922 26.3671875 176.348298 24.4661363 175.375 21.9336096 175.375 18.7695312L175.375 18.2226562C175.375 16.1002498 175.785152 14.2024823 176.605469 12.5292969 177.425785 10.8561114 178.587883 9.56706182 180.091797 8.66210938 181.595711 7.75715693 183.311188 7.3046875 185.238281 7.3046875 188.128921 7.3046875 190.404289 8.21613672 192.064453 10.0390625 193.724618 11.8619883 194.554688 14.4465979 194.554688 17.7929688L194.554688 20.0976562 181.097656 20.0976562C181.279949 21.4778715 181.830074 22.5846313 182.748047 23.4179688 183.66602 24.2513062 184.828118 24.6679688 186.234375 24.6679688 188.408865 24.6679688 190.108067 23.8802162 191.332031 22.3046875L194.105469 25.4101562C193.25911 26.6080789 192.113288 27.5423144 190.667969 28.2128906 189.222649 28.8834669 187.621103 29.21875 185.863281 29.21875zM185.21875 11.875C184.098953 11.875 183.190759 12.2526004 182.494141 13.0078125 181.797523 13.7630246 181.351563 14.843743 181.15625 16.25L189.007812 16.25 189.007812 15.8007812C188.981771 14.550775 188.643232 13.5839878 187.992188 12.9003906 187.341143 12.2167935 186.416673 11.875 185.21875 11.875zM209.632812 12.9882812C208.864579 12.8841141 208.187503 12.8320312 207.601562 12.8320312 205.466135 12.8320312 204.06641 13.5546803 203.402344 15L203.402344 28.828125 197.757812 28.828125 197.757812 7.6953125 203.089844 7.6953125 203.246094 10.2148438C204.378912 8.27472988 205.947907 7.3046875 207.953125 7.3046875 208.578128 7.3046875 209.16406 7.38932207 209.710938 7.55859375L209.632812 12.9882812zM12.6484375 62.015625L6.41796875 62.015625 4.29882812 66 3 66 10.6855469 51.78125 11.828125 51.78125 14.5722656 66 13.390625 66 12.6484375 62.015625zM6.95507812 60.9902344L12.453125 60.9902344 11.046875 53.2851562 6.95507812 60.9902344zM19.3867188 55.4335938L19.0351562 57.2402344C19.5039086 56.5891895 20.0458954 56.08952 20.6611328 55.7412109 21.2763703 55.3929019 21.9355434 55.2252604 22.6386719 55.2382812 23.654302 55.264323 24.3932269 55.6191372 24.8554688 56.3027344 25.3177106 56.9863315 25.4804694 57.9270773 25.34375 59.125L24.1914062 66 23.0390625 66 24.1914062 59.1054688C24.2304689 58.7343731 24.2369793 58.3763038 24.2109375 58.03125 24.1002599 56.87239 23.4687558 56.2766929 22.3164062 56.2441406 21.6328091 56.2311197 20.9947946 56.4345682 20.4023438 56.8544922 19.8098929 57.2744162 19.2890647 57.9075479 18.8398438 58.7539062L17.5898438 66 16.4375 66 18.2734375 55.4335938 19.3867188 55.4335938zM37.1894531 66.1953125C35.8613215 66.1692707 34.8082721 65.7086633 34.0302734 64.8134766 33.2522748 63.9182898 32.8307295 62.7220127 32.765625 61.2246094 32.7395832 60.7037734 32.7623694 60.1862005 32.8339844 59.671875L33.0292969 58.3242188C33.3222671 56.3385317 34.0384058 54.7174542 35.1777344 53.4609375 36.3431048 52.178379 37.7818925 51.5533853 39.4941406 51.5859375 40.3665408 51.6054688 41.1298795 51.8186829 41.7841797 52.2255859 42.4384798 52.632489 42.9479148 53.224931 43.3125 54.0029297 43.6770852 54.7809284 43.8756509 55.635412 43.9082031 56.5664062 43.9277345 57.1263049 43.8984379 57.6731744 43.8203125 58.2070312L43.5957031 59.7109375C43.3678374 61.05209 42.9462921 62.2239533 42.3310547 63.2265625 41.7158172 64.2291717 40.9687544 64.9794897 40.0898438 65.4775391 39.2109331 65.9755884 38.2441459 66.2148438 37.1894531 66.1953125zM42.6484375 58.0996094C42.7005211 57.6894511 42.7298177 57.2727886 42.7363281 56.8496094 42.7363281 56.0553346 42.6126314 55.3326855 42.3652344 54.6816406 42.1178373 54.0305957 41.7451197 53.5309262 41.2470703 53.1826172 40.7490209 52.8343082 40.1451858 52.6503907 39.4355469 52.6308594 38.133457 52.5983071 37.0234421 53.0654249 36.1054688 54.0322266 35.1874954 54.9990283 34.5820327 56.3059813 34.2890625 57.953125L34.1819115 58.5914192C34.0200549 59.606865 33.9418403 60.3804227 33.9472656 60.9121094 33.9472656 62.2272201 34.2353487 63.2558557 34.8115234 63.9980469 35.3876982 64.7402381 36.1998646 65.1243488 37.2480469 65.1503906 38.6347726 65.1829429 39.782222 64.6816458 40.6904297 63.6464844 41.5986374 62.6113229 42.1796862 61.2441491 42.4335938 59.5449219L42.6484375 58.0996094zM49.3183594 52.7285156L48.8496094 55.4335938 50.96875 55.4335938 50.8027344 56.390625 48.6835938 56.390625 47.5117188 63.4414062 47.4921875 64.046875C47.4921875 64.756514 47.8177051 65.1210937 48.46875 65.140625 48.6705739 65.1471354 48.986326 65.1243492 49.4160156 65.0722656L49.3671875 66.0292969C48.983071 66.1399745 48.5924499 66.1888021 48.1953125 66.1757812 47.5117153 66.1627604 47.0136734 65.9235049 46.7011719 65.4580078 46.3886703 64.9925107 46.2747392 64.3170617 46.359375 63.4316406L47.5214844 56.390625 45.6269531 56.390625 45.8027344 55.4335938 47.6777344 55.4335938 48.15625 52.7285156 49.3183594 52.7285156zM55.6464844 52.7285156L55.1777344 55.4335938 57.296875 55.4335938 57.1308594 56.390625 55.0117188 56.390625 53.8398438 63.4414062 53.8203125 64.046875C53.8203125 64.756514 54.1458301 65.1210937 54.796875 65.140625 54.9986989 65.1471354 55.314451 65.1243492 55.7441406 65.0722656L55.6953125 66.0292969C55.311196 66.1399745 54.9205749 66.1888021 54.5234375 66.1757812 53.8398403 66.1627604 53.3417984 65.9235049 53.0292969 65.4580078 52.7167953 64.9925107 52.6028642 64.3170617 52.6875 63.4316406L53.8496094 56.390625 51.9550781 56.390625 52.1308594 55.4335938 54.0058594 55.4335938 54.484375 52.7285156 55.6464844 52.7285156zM62.0722656 66.1953125C61.2259072 66.1822916 60.4934927 65.9462914 59.875 65.4873047 59.2565073 65.028318 58.8024103 64.4033243 58.5126953 63.6123047 58.2229803 62.8212851 58.1204423 61.9668015 58.2050781 61.0488281L58.234375 60.7167969C58.3255213 59.7402295 58.6152319 58.8108768 59.1035156 57.9287109 59.5917993 57.0465451 60.2102827 56.3727237 60.9589844 55.9072266 61.707686 55.4417294 62.5084593 55.2187499 63.3613281 55.2382812 64.1490925 55.2513021 64.8147759 55.4661438 65.3583984 55.8828125 65.9020209 56.2994812 66.2975248 56.8789025 66.5449219 57.6210938 66.7923189 58.363285 66.8704432 59.1835893 66.7792969 60.0820312L66.7011719 60.7949219 59.3867188 60.7949219 59.3574219 61.0292969C59.2597651 61.7389358 59.3118479 62.41764 59.5136719 63.0654297 59.7154958 63.7132194 60.0458961 64.2275372 60.5048828 64.6083984 60.9638695 64.9892597 61.5156218 65.1861979 62.1601562 65.1992188 62.7851594 65.2187501 63.3483048 65.0983086 63.8496094 64.8378906 64.350914 64.5774727 64.8131489 64.2291688 65.2363281 63.7929688L65.9199219 64.3496094C65.4446591 64.9615916 64.8798861 65.4254542 64.2255859 65.7412109 63.5712858 66.0569677 62.8535195 66.2083334 62.0722656 66.1953125zM63.3027344 56.234375C62.456376 56.2018228 61.69792 56.5012989 61.0273438 57.1328125 60.3567675 57.7643261 59.8522152 58.6529891 59.5136719 59.7988281L65.6464844 59.8085938 65.6757812 59.6621094C65.7929693 58.7376256 65.6302105 57.9417351 65.1875 57.2744141 64.7447895 56.607093 64.1165405 56.2604168 63.3027344 56.234375zM74.4550781 56.4199219C74.2011706 56.3678383 73.9440117 56.3385417 73.6835938 56.3320312 72.9414025 56.3320312 72.2610708 56.558266 71.6425781 57.0107422 71.0240854 57.4632184 70.6106781 58.0377569 70.4023438 58.734375L69.1523438 66 68 66 69.8359375 55.4335938 70.9785156 55.4335938 70.6269531 57.1132812C71.0110696 56.4882781 71.4749322 56.0130225 72.0185547 55.6875 72.5621772 55.3619775 73.159502 55.2057291 73.8105469 55.21875 74.0384126 55.21875 74.305337 55.2643225 74.6113281 55.3554688L74.4550781 56.4199219zM77.5117188 63.5683594L77.5117188 64.3984375 77.8925781 63.4902344 81.75 55.4335938 82.7460938 55.4335938 83.7910156 63.5097656 83.8496094 64.5058594 84.25 63.5 87.7460938 55.4335938 88.9863281 55.4335938 84.1621094 66 83.1660156 66 82.0039062 57.6210938 81.9941406 57.0351562 81.7695312 57.6308594 77.7265625 66 76.7304688 66 75.6074219 55.4335938 76.7011719 55.4238281 77.5117188 63.5683594zM89.6308594 60.6191406C89.7480475 59.5970001 90.0605443 58.6611371 90.5683594 57.8115234 91.0761744 56.9619098 91.7093061 56.3157574 92.4677734 55.8730469 93.2262408 55.4303363 94.0481727 55.2187499 94.9335938 55.2382812 95.8059939 55.2513021 96.5498016 55.4905576 97.1650391 55.9560547 97.7802765 56.4215518 98.2294908 57.0563111 98.5126953 57.8603516 98.7958999 58.664392 98.8919275 59.5546826 98.8007812 60.53125L98.78125 60.7167969C98.5859365 62.3834719 97.9951221 63.7213491 97.0087891 64.7304688 96.022456 65.7395884 94.8391996 66.2278647 93.4589844 66.1953125 92.2740826 66.1757812 91.3268265 65.7395876 90.6171875 64.8867188 89.9075485 64.0338499 89.5592447 62.9075591 89.5722656 61.5078125L89.6015625 60.9511719 89.6308594 60.6191406zM90.7636719 60.9511719C90.679036 61.7259153 90.7360016 62.4404264 90.9345703 63.0947266 91.133139 63.7490267 91.4505187 64.2617169 91.8867188 64.6328125 92.3229188 65.0039081 92.8665332 65.1992187 93.5175781 65.21875 94.2207066 65.2317709 94.8636039 65.0527362 95.4462891 64.6816406 96.0289743 64.310545 96.5091127 63.7864617 96.8867188 63.109375 97.2643248 62.4322883 97.508463 61.6835979 97.6191406 60.8632812L97.6484375 60.5410156C97.7656256 59.2844989 97.5719426 58.257491 97.0673828 57.4599609 96.562823 56.6624309 95.832036 56.2539063 94.875 56.234375 93.8333281 56.2018228 92.933272 56.603837 92.1748047 57.4404297 91.4163374 58.2770224 90.9524748 59.3886649 90.7832031 60.7753906L90.7636719 60.9511719zM106.769531 56.4199219C106.515624 56.3678383 106.258465 56.3385417 105.998047 56.3320312 105.255856 56.3320312 104.575524 56.558266 103.957031 57.0107422 103.338539 57.4632184 102.925131 58.0377569 102.716797 58.734375L101.466797 66 100.314453 66 102.150391 55.4335938 103.292969 55.4335938 102.941406 57.1132812C103.325523 56.4882781 103.789385 56.0130225 104.333008 55.6875 104.87663 55.3619775 105.473955 55.2057291 106.125 55.21875 106.352866 55.21875 106.61979 55.2643225 106.925781 55.3554688L106.769531 56.4199219zM108.234375 66L107.0625 66 109.669922 51 110.841797 51 108.234375 66zM111.847656 60.6875C111.997397 59.5807236 112.300128 58.5992881 112.755859 57.7431641 113.211591 56.88704 113.769853 56.2506531 114.430664 55.8339844 115.091475 55.4173156 115.832027 55.2187499 116.652344 55.2382812 117.277347 55.2513021 117.847003 55.3961575 118.361328 55.6728516 118.875654 55.9495457 119.282551 56.3678357 119.582031 56.9277344L120.65625 51 121.808594 51 119.201172 66 118.117188 66 118.380859 64.59375C117.462886 65.7005264 116.323575 66.2343752 114.962891 66.1953125 113.979813 66.1692707 113.209964 65.7867875 112.65332 65.0478516 112.096677 64.3089156 111.805339 63.3144594 111.779297 62.0644531 111.769531 61.7617172 111.776245 61.4663089 111.799438 61.1782232L111.847656 60.6875zM113.039062 60.6777344L113.019531 60.8828125C112.967448 61.3190126 112.947917 61.7845027 112.960938 62.2792969 112.986979 63.1712284 113.193683 63.8727188 113.581055 64.3837891 113.968426 64.8948593 114.520179 65.1634113 115.236328 65.1894531 115.958988 65.2089845 116.593747 65.0429705 117.140625 64.6914062 117.687503 64.339842 118.149738 63.8710967 118.527344 63.2851562L119.376953 58.3046875C119.18815 57.6731739 118.877281 57.1767596 118.444336 56.8154297 118.011391 56.4540998 117.459639 56.263672 116.789062 56.2441406 115.799474 56.2115884 114.974287 56.5908164 114.313477 57.3818359 113.652666 58.1728555 113.227866 59.2714773 113.039062 60.6777344zM123.556641 66L122.384766 66 124.992188 51 126.164062 51 123.556641 66zM130.236328 64.28125L134.757812 55.4335938 136.056641 55.4335938 129.611328 67.6992188C129.136065 68.6497443 128.633141 69.3235657 128.102539 69.7207031 127.571937 70.1178405 126.981123 70.3098959 126.330078 70.296875 126.082681 70.2838541 125.770184 70.2317713 125.392578 70.140625L125.509766 69.1835938 126.095703 69.2519531C127.128694 69.2949944 127.95552 68.7224854 128.576202 67.5344098L129.425781 65.84375 127.384766 55.4335938 128.605469 55.4335938 130.236328 64.28125zM147.316406 60.0820312L143.302734 60.0820312 142.267578 66 141.066406 66 143.537109 51.78125 147.746094 51.7910156C149.165372 51.7910156 150.259111 52.1604781 151.027344 52.8994141 151.795577 53.63835 152.117839 54.6360614 151.994141 55.8925781 151.896484 56.8431037 151.540042 57.663408 150.924805 58.3535156 150.309567 59.0436232 149.490891 59.5449203 148.46875 59.8574219L150.890625 65.8632812 150.880859 66 149.611328 66 147.316406 60.0820312zM143.478516 59.0566406L146.994141 59.0664062C147.99675 59.0664062 148.854489 58.7718128 149.567383 58.1826172 150.280277 57.5934215 150.692057 56.8268276 150.802734 55.8828125 150.913412 54.9713496 150.711591 54.2389351 150.197266 53.6855469 149.68294 53.1321587 148.924484 52.842448 147.921875 52.8164062L144.5625 52.8066406 143.478516 59.0566406zM157.433594 66.1953125C156.587235 66.1822916 155.854821 65.9462914 155.236328 65.4873047 154.617835 65.028318 154.163738 64.4033243 153.874023 63.6123047 153.584308 62.8212851 153.48177 61.9668015 153.566406 61.0488281L153.595703 60.7167969C153.686849 59.7402295 153.97656 58.8108768 154.464844 57.9287109 154.953127 57.0465451 155.571611 56.3727237 156.320312 55.9072266 157.069014 55.4417294 157.869787 55.2187499 158.722656 55.2382812 159.510421 55.2513021 160.176104 55.4661438 160.719727 55.8828125 161.263349 56.2994812 161.658853 56.8789025 161.90625 57.6210938 162.153647 58.363285 162.231771 59.1835893 162.140625 60.0820312L162.0625 60.7949219 154.748047 60.7949219 154.71875 61.0292969C154.621093 61.7389358 154.673176 62.41764 154.875 63.0654297 155.076824 63.7132194 155.407224 64.2275372 155.866211 64.6083984 156.325198 64.9892597 156.87695 65.1861979 157.521484 65.1992188 158.146488 65.2187501 158.709633 65.0983086 159.210938 64.8378906 159.712242 64.5774727 160.174477 64.2291688 160.597656 63.7929688L161.28125 64.3496094C160.805987 64.9615916 160.241214 65.4254542 159.586914 65.7412109 158.932614 66.0569677 158.214848 66.2083334 157.433594 66.1953125zM158.664062 56.234375C157.817704 56.2018228 157.059248 56.5012989 156.388672 57.1328125 155.718096 57.7643261 155.213543 58.6529891 154.875 59.7988281L161.007812 59.8085938 161.037109 59.6621094C161.154297 58.7376256 160.991539 57.9417351 160.548828 57.2744141 160.106118 56.607093 159.477869 56.2604168 158.664062 56.234375zM166.261719 55.4335938L165.929688 57.1523438C166.880213 55.8502539 168.074863 55.2122395 169.513672 55.2382812 170.255863 55.2513021 170.872719 55.4368472 171.364258 55.7949219 171.855797 56.1529966 172.160156 56.6510385 172.277344 57.2890625 172.759117 56.6315071 173.320635 56.1220721 173.961914 55.7607422 174.603193 55.3994123 175.301429 55.2252604 176.056641 55.2382812 177.05925 55.2578126 177.803057 55.5882129 178.288086 56.2294922 178.773114 56.8707714 178.973308 57.7578068 178.888672 58.890625L178.869141 59.1152344 177.707031 66 176.544922 66 177.697266 59.0957031C177.736328 58.7115866 177.739583 58.3470069 177.707031 58.0019531 177.576822 56.8496036 176.919277 56.263672 175.734375 56.2441406 174.9401 56.2311197 174.209313 56.4899062 173.541992 57.0205078 172.874671 57.5511094 172.456381 58.2135377 172.287109 59.0078125L171.076172 66 169.914062 66 171.085938 59.0078125C171.274741 57.2109285 170.61394 56.2897138 169.103516 56.2441406 168.354814 56.2311197 167.658206 56.4654924 167.013672 56.9472656 166.369137 57.4290389 165.936199 58.0279912 165.714844 58.7441406L164.464844 66 163.302734 66 165.138672 55.4335938 166.261719 55.4335938zM180.939453 60.6191406C181.056641 59.5970001 181.369138 58.6611371 181.876953 57.8115234 182.384768 56.9619098 183.0179 56.3157574 183.776367 55.8730469 184.534835 55.4303363 185.356766 55.2187499 186.242188 55.2382812 187.114588 55.2513021 187.858395 55.4905576 188.473633 55.9560547 189.08887 56.4215518 189.538085 57.0563111 189.821289 57.8603516 190.104494 58.664392 190.200521 59.5546826 190.109375 60.53125L190.089844 60.7167969C189.89453 62.3834719 189.303716 63.7213491 188.317383 64.7304688 187.33105 65.7395884 186.147793 66.2278647 184.767578 66.1953125 183.582676 66.1757812 182.63542 65.7395876 181.925781 64.8867188 181.216142 64.0338499 180.867838 62.9075591 180.880859 61.5078125L180.910156 60.9511719 180.939453 60.6191406zM182.072266 60.9511719C181.98763 61.7259153 182.044595 62.4404264 182.243164 63.0947266 182.441733 63.7490267 182.759112 64.2617169 183.195312 64.6328125 183.631513 65.0039081 184.175127 65.1992187 184.826172 65.21875 185.5293 65.2317709 186.172198 65.0527362 186.754883 64.6816406 187.337568 64.310545 187.817706 63.7864617 188.195312 63.109375 188.572919 62.4322883 188.817057 61.6835979 188.927734 60.8632812L188.957031 60.5410156C189.074219 59.2844989 188.880536 58.257491 188.375977 57.4599609 187.871417 56.6624309 187.14063 56.2539063 186.183594 56.234375 185.141922 56.2018228 184.241866 56.603837 183.483398 57.4404297 182.724931 58.2770224 182.261069 59.3886649 182.091797 60.7753906L182.072266 60.9511719zM195.714844 52.7285156L195.246094 55.4335938 197.365234 55.4335938 197.199219 56.390625 195.080078 56.390625 193.908203 63.4414062 193.888672 64.046875C193.888672 64.756514 194.214189 65.1210937 194.865234 65.140625 195.067058 65.1471354 195.38281 65.1243492 195.8125 65.0722656L195.763672 66.0292969C195.379555 66.1399745 194.988934 66.1888021 194.591797 66.1757812 193.9082 66.1627604 193.410158 65.9235049 193.097656 65.4580078 192.785155 64.9925107 192.671224 64.3170617 192.755859 63.4316406L193.917969 56.390625 192.023438 56.390625 192.199219 55.4335938 194.074219 55.4335938 194.552734 52.7285156 195.714844 52.7285156zM202.140625 66.1953125C201.294267 66.1822916 200.561852 65.9462914 199.943359 65.4873047 199.324867 65.028318 198.87077 64.4033243 198.581055 63.6123047 198.29134 62.8212851 198.188802 61.9668015 198.273438 61.0488281L198.302734 60.7167969C198.393881 59.7402295 198.683591 58.8108768 199.171875 57.9287109 199.660159 57.0465451 200.278642 56.3727237 201.027344 55.9072266 201.776045 55.4417294 202.576819 55.2187499 203.429688 55.2382812 204.217452 55.2513021 204.883135 55.4661438 205.426758 55.8828125 205.97038 56.2994812 206.365884 56.8789025 206.613281 57.6210938 206.860678 58.363285 206.938803 59.1835893 206.847656 60.0820312L206.769531 60.7949219 199.455078 60.7949219 199.425781 61.0292969C199.328125 61.7389358 199.380207 62.41764 199.582031 63.0654297 199.783855 63.7132194 200.114256 64.2275372 200.573242 64.6083984 201.032229 64.9892597 201.583981 65.1861979 202.228516 65.1992188 202.853519 65.2187501 203.416664 65.0983086 203.917969 64.8378906 204.419273 64.5774727 204.881508 64.2291688 205.304688 63.7929688L205.988281 64.3496094C205.513018 64.9615916 204.948245 65.4254542 204.293945 65.7412109 203.639645 66.0569677 202.921879 66.2083334 202.140625 66.1953125zM203.371094 56.234375C202.524735 56.2018228 201.766279 56.5012989 201.095703 57.1328125 200.425127 57.7643261 199.920575 58.6529891 199.582031 59.7988281L205.714844 59.8085938 205.744141 59.6621094C205.861329 58.7376256 205.69857 57.9417351 205.255859 57.2744141 204.813149 56.607093 204.1849 56.2604168 203.371094 56.234375zM213.146484 66L215.617188 51.78125 219.318359 51.7910156C220.418625 51.7910156 221.372392 52.0725883 222.179688 52.6357422 222.986983 53.198896 223.571287 53.9768831 223.932617 54.9697266 224.293947 55.9625701 224.39974 57.0546815 224.25 58.2460938L224.074219 59.4277344C223.774738 61.4004005 222.986986 62.9889263 221.710938 64.1933594 220.434889 65.3977925 218.86915 66 217.013672 66L213.146484 66zM216.632812 52.8066406L214.513672 64.984375 217.052734 64.9941406C218.048833 64.9941406 218.957027 64.7662783 219.777344 64.3105469 220.59766 63.8548154 221.276365 63.2119182 221.813477 62.3818359 222.350589 61.5517537 222.702148 60.614263 222.868164 59.5693359L223.008138 58.6323766C223.084093 58.079715 223.125325 57.6710083 223.131836 57.40625 223.141602 57.0091126 223.120443 56.6250019 223.068359 56.2539062 222.918619 55.2122344 222.521488 54.3854197 221.876953 53.7734375 221.232419 53.1614553 220.399094 52.842448 219.376953 52.8164062L216.632812 52.8066406zM229.875 66.1953125C229.028642 66.1822916 228.296227 65.9462914 227.677734 65.4873047 227.059242 65.028318 226.605145 64.4033243 226.31543 63.6123047 226.025715 62.8212851 225.923177 61.9668015 226.007812 61.0488281L226.037109 60.7167969C226.128256 59.7402295 226.417966 58.8108768 226.90625 57.9287109 227.394534 57.0465451 228.013017 56.3727237 228.761719 55.9072266 229.51042 55.4417294 230.311194 55.2187499 231.164062 55.2382812 231.951827 55.2513021 232.61751 55.4661438 233.161133 55.8828125 233.704755 56.2994812 234.100259 56.8789025 234.347656 57.6210938 234.595053 58.363285 234.673178 59.1835893 234.582031 60.0820312L234.503906 60.7949219 227.189453 60.7949219 227.160156 61.0292969C227.0625 61.7389358 227.114582 62.41764 227.316406 63.0654297 227.51823 63.7132194 227.848631 64.2275372 228.307617 64.6083984 228.766604 64.9892597 229.318356 65.1861979 229.962891 65.1992188 230.587894 65.2187501 231.151039 65.0983086 231.652344 64.8378906 232.153648 64.5774727 232.615883 64.2291688 233.039062 63.7929688L233.722656 64.3496094C233.247393 64.9615916 232.68262 65.4254542 232.02832 65.7412109 231.37402 66.0569677 230.656254 66.2083334 229.875 66.1953125zM231.105469 56.234375C230.25911 56.2018228 229.500654 56.5012989 228.830078 57.1328125 228.159502 57.7643261 227.65495 58.6529891 227.316406 59.7988281L233.449219 59.8085938 233.478516 59.6621094C233.595704 58.7376256 233.432945 57.9417351 232.990234 57.2744141 232.547524 56.607093 231.919275 56.2604168 231.105469 56.234375zM242.482422 63.2460938C242.586589 62.3476518 242.03972 61.6966166 240.841797 61.2929688L239.162109 60.7949219C237.619133 60.2740859 236.889974 59.404954 236.974609 58.1875 237.020183 57.3085894 237.425452 56.5940783 238.19043 56.0439453 238.955407 55.4938124 239.865229 55.2252604 240.919922 55.2382812 241.955083 55.2513021 242.794919 55.5426404 243.439453 56.1123047 244.083988 56.681969 244.383464 57.4420525 244.337891 58.3925781L243.185547 58.3925781C243.22461 57.7610646 243.027671 57.2467468 242.594727 56.8496094 242.161782 56.452472 241.587243 56.2473959 240.871094 56.234375 240.128903 56.234375 239.503909 56.4085269 238.996094 56.7568359 238.488279 57.105145 238.201823 57.5657523 238.136719 58.1386719 238.039062 58.9785198 238.55338 59.5677066 239.679688 59.90625L240.900391 60.2578125 241.554688 60.4824219C243.026049 61.0358101 243.719401 61.9374938 243.634766 63.1875 243.582682 64.0338584 243.216475 64.7288384 242.536133 65.2724609 241.855791 65.8160834 240.978521 66.1204424 239.904297 66.1855469L239.503906 66.1953125C238.794267 66.1822916 238.152998 66.0439466 237.580078 65.7802734 237.007159 65.5166002 236.56771 65.1471378 236.261719 64.671875 235.955728 64.1966122 235.822265 63.6497427 235.861328 63.03125L237.023438 63.0410156C237.023438 63.7050814 237.248045 64.2291647 237.697266 64.6132812 238.146487 64.9973978 238.76497 65.1959635 239.552734 65.2089844 240.333988 65.2089844 240.998044 65.0315773 241.544922 64.6767578 242.0918 64.3219383 242.404296 63.8450551 242.482422 63.2460938zM249.142578 60.6972656L247.580078 62.015625 246.886719 66 245.724609 66 248.332031 51 249.494141 51 247.833984 60.5117188 249.044922 59.3984375 253.644531 55.4335938 255.197266 55.4335938 250.001953 59.9355469 253.644531 66 252.355469 66 249.142578 60.6972656zM259.416016 52.7285156L258.947266 55.4335938 261.066406 55.4335938 260.900391 56.390625 258.78125 56.390625 257.609375 63.4414062 257.589844 64.046875C257.589844 64.756514 257.915361 65.1210937 258.566406 65.140625 258.76823 65.1471354 259.083982 65.1243492 259.513672 65.0722656L259.464844 66.0292969C259.080727 66.1399745 258.690106 66.1888021 258.292969 66.1757812 257.609372 66.1627604 257.11133 65.9235049 256.798828 65.4580078 256.486327 64.9925107 256.372395 64.3170617 256.457031 63.4316406L257.619141 56.390625 255.724609 56.390625 255.900391 55.4335938 257.775391 55.4335938 258.253906 52.7285156 259.416016 52.7285156zM261.935547 60.6191406C262.052735 59.5970001 262.365232 58.6611371 262.873047 57.8115234 263.380862 56.9619098 264.013994 56.3157574 264.772461 55.8730469 265.530928 55.4303363 266.35286 55.2187499 267.238281 55.2382812 268.110681 55.2513021 268.854489 55.4905576 269.469727 55.9560547 270.084964 56.4215518 270.534178 57.0563111 270.817383 57.8603516 271.100587 58.664392 271.196615 59.5546826 271.105469 60.53125L271.085938 60.7167969C270.890624 62.3834719 270.29981 63.7213491 269.313477 64.7304688 268.327144 65.7395884 267.143887 66.2278647 265.763672 66.1953125 264.57877 66.1757812 263.631514 65.7395876 262.921875 64.8867188 262.212236 64.0338499 261.863932 62.9075591 261.876953 61.5078125L261.90625 60.9511719 261.935547 60.6191406zM263.068359 60.9511719C262.983724 61.7259153 263.040689 62.4404264 263.239258 63.0947266 263.437827 63.7490267 263.755206 64.2617169 264.191406 64.6328125 264.627606 65.0039081 265.171221 65.1992187 265.822266 65.21875 266.525394 65.2317709 267.168291 65.0527362 267.750977 64.6816406 268.333662 64.310545 268.8138 63.7864617 269.191406 63.109375 269.569012 62.4322883 269.81315 61.6835979 269.923828 60.8632812L269.953125 60.5410156C270.070313 59.2844989 269.87663 58.257491 269.37207 57.4599609 268.86751 56.6624309 268.136724 56.2539063 267.179688 56.234375 266.138016 56.2018228 265.23796 56.603837 264.479492 57.4404297 263.721025 58.2770224 263.257162 59.3886649 263.087891 60.7753906L263.068359 60.9511719zM277.052734 66.2050781C276.447263 66.1920572 275.875979 66.0634778 275.338867 65.8193359 274.801755 65.5751941 274.367189 65.1927109 274.035156 64.671875L273.058594 70.0625 271.90625 70.0625 274.445312 55.4335938 275.519531 55.4335938 275.246094 56.9277344C276.164067 55.762364 277.313144 55.1992186 278.693359 55.2382812 279.682948 55.264323 280.454424 55.6321579 281.007812 56.3417969 281.561201 57.0514358 281.847656 58.0572852 281.867188 59.359375 281.873698 59.7695333 281.854167 60.1666647 281.808594 60.5507812L281.769531 60.8242188C281.60677 61.9635474 281.300783 62.9466104 280.851562 63.7734375 280.402342 64.6002646 279.855472 65.2171204 279.210938 65.6240234 278.566403 66.0309265 277.847009 66.2246095 277.052734 66.2050781zM280.646484 60.5507812L280.705078 59.6230469C280.724609 58.581375 280.535809 57.7643259 280.138672 57.171875 279.741534 56.5794241 279.152348 56.2701824 278.371094 56.2441406 277.687497 56.2311197 277.067386 56.3987613 276.510742 56.7470703 275.954099 57.0953793 275.483726 57.6015592 275.099609 58.265625L274.230469 63.3535156C274.438803 63.952477 274.769203 64.4082016 275.22168 64.7207031 275.674156 65.0332047 276.216143 65.1992187 276.847656 65.21875 277.791671 65.2513022 278.590817 64.8981157 279.245117 64.1591797 279.899417 63.4202437 280.340494 62.3899806 280.568359 61.0683594L280.646484 60.5507812zM296.710938 62.015625L290.480469 62.015625 288.361328 66 287.0625 66 294.748047 51.78125 295.890625 51.78125 298.634766 66 297.453125 66 296.710938 62.015625zM291.017578 60.9902344L296.515625 60.9902344 295.109375 53.2851562 291.017578 60.9902344zM304.933594 66.2050781C304.328122 66.1920572 303.756839 66.0634778 303.219727 65.8193359 302.682615 65.5751941 302.248049 65.1927109 301.916016 64.671875L300.939453 70.0625 299.787109 70.0625 302.326172 55.4335938 303.400391 55.4335938 303.126953 56.9277344C304.044926 55.762364 305.194004 55.1992186 306.574219 55.2382812 307.563807 55.264323 308.335284 55.6321579 308.888672 56.3417969 309.44206 57.0514358 309.728516 58.0572852 309.748047 59.359375 309.754557 59.7695333 309.735026 60.1666647 309.689453 60.5507812L309.650391 60.8242188C309.487629 61.9635474 309.181643 62.9466104 308.732422 63.7734375 308.283201 64.6002646 307.736331 65.2171204 307.091797 65.6240234 306.447262 66.0309265 305.727869 66.2246095 304.933594 66.2050781zM308.527344 60.5507812L308.585938 59.6230469C308.605469 58.581375 308.416669 57.7643259 308.019531 57.171875 307.622394 56.5794241 307.033207 56.2701824 306.251953 56.2441406 305.568356 56.2311197 304.948245 56.3987613 304.391602 56.7470703 303.834958 57.0953793 303.364585 57.6015592 302.980469 58.265625L302.111328 63.3535156C302.319662 63.952477 302.650063 64.4082016 303.102539 64.7207031 303.555015 65.0332047 304.097002 65.1992187 304.728516 65.21875 305.672531 65.2513022 306.471676 64.8981157 307.125977 64.1591797 307.780277 63.4202437 308.221353 62.3899806 308.449219 61.0683594L308.527344 60.5507812zM315.783203 66.2050781C315.177731 66.1920572 314.606448 66.0634778 314.069336 65.8193359 313.532224 65.5751941 313.097658 65.1927109 312.765625 64.671875L311.789062 70.0625 310.636719 70.0625 313.175781 55.4335938 314.25 55.4335938 313.976562 56.9277344C314.894536 55.762364 316.043613 55.1992186 317.423828 55.2382812 318.413416 55.264323 319.184893 55.6321579 319.738281 56.3417969 320.291669 57.0514358 320.578125 58.0572852 320.597656 59.359375 320.604167 59.7695333 320.584636 60.1666647 320.539062 60.5507812L320.5 60.8242188C320.337239 61.9635474 320.031252 62.9466104 319.582031 63.7734375 319.13281 64.6002646 318.585941 65.2171204 317.941406 65.6240234 317.296872 66.0309265 316.577478 66.2246095 315.783203 66.2050781zM319.376953 60.5507812L319.435547 59.6230469C319.455078 58.581375 319.266278 57.7643259 318.869141 57.171875 318.472003 56.5794241 317.882816 56.2701824 317.101562 56.2441406 316.417965 56.2311197 315.797854 56.3987613 315.241211 56.7470703 314.684568 57.0953793 314.214195 57.6015592 313.830078 58.265625L312.960938 63.3535156C313.169272 63.952477 313.499672 64.4082016 313.952148 64.7207031 314.404625 65.0332047 314.946611 65.1992187 315.578125 65.21875 316.52214 65.2513022 317.321286 64.8981157 317.975586 64.1591797 318.629886 63.4202437 319.070962 62.3899806 319.298828 61.0683594L319.376953 60.5507812zM324.123047 62.0449219L323.048828 62.0449219 324.767578 51.78125 325.978516 51.78125 324.123047 62.0449219zM322.296875 65.3164062C322.309896 65.095051 322.401041 64.9062508 322.570312 64.75 322.739584 64.5937492 322.925129 64.515625 323.126953 64.515625 323.354819 64.5091146 323.541991 64.5839836 323.688477 64.7402344 323.834962 64.8964852 323.898438 65.0885405 323.878906 65.3164062 323.865885 65.5312511 323.777996 65.7119133 323.615234 65.8583984 323.452473 66.0048835 323.260418 66.0813802 323.039062 66.0878906 322.817707 66.0944011 322.635417 66.0244148 322.492188 65.8779297 322.348958 65.7314446 322.283854 65.544272 322.296875 65.3164062z"/>
</svg>
